<?xml version="1.0" encoding="UTF-8"?>
<!DOCTYPE svg PUBLIC "-//W3C//DTD SVG 1.1//EN" "http://www.w3.org/Graphics/SVG/1.1/DTD/svg11.dtd">
<!-- Creator: CorelDRAW 2019 (64 Bit) -->
<svg xmlns="http://www.w3.org/2000/svg" xml:space="preserve" width="2.6134mm" height="3.109mm" version="1.1" style="shape-rendering:geometricPrecision; text-rendering:geometricPrecision; image-rendering:optimizeQuality; fill-rule:evenodd; clip-rule:evenodd"
viewBox="0 0 6.91 8.22"
 xmlns:xlink="http://www.w3.org/1999/xlink"
 xmlns:xodm="http://www.corel.com/coreldraw/odm/2003">
 <defs>
  <style type="text/css">
   <![CDATA[
    .fil1 {fill:#DDBEBE}
    .fil0 {fill:#DDBEBE;fill-rule:nonzero}
   ]]>
  </style>
 </defs>
 <g id="Camada_x0020_1">
  <metadata id="CorelCorpID_0Corel-Layer"/>
  <g id="_2289516795568">
   <path class="fil0" d="M2.35 7.33c0.43,0.44 0.75,0.73 0.77,0.75 0.19,0.17 0.48,0.17 0.67,0 1.07,-0.96 3.12,-3.14 3.12,-4.66 0,-4.56 -6.91,-4.56 -6.91,0 0,1.38 1.45,2.9 2.35,3.91zm-1.34 -3.91c0,-1.35 1.1,-2.45 2.45,-2.45 1.35,0 2.45,1.1 2.45,2.45 0,0.92 -1.39,2.57 -2.45,3.6 -0.75,-0.73 -2.45,-2.57 -2.45,-3.6z"/>
   <rect class="fil1" x="2.11" y="2.01" width="2.68" height="2.68" rx="1.34" ry="1.34"/>
  </g>
 </g>
</svg>
