<?xml version="1.0" encoding="UTF-8"?>
<!DOCTYPE svg PUBLIC "-//W3C//DTD SVG 1.1//EN" "http://www.w3.org/Graphics/SVG/1.1/DTD/svg11.dtd">
<!-- Creator: CorelDRAW 2019 (64 Bit) -->
<svg xmlns="http://www.w3.org/2000/svg" xml:space="preserve" width="3.1089mm" height="2.0726mm" version="1.1" style="shape-rendering:geometricPrecision; text-rendering:geometricPrecision; image-rendering:optimizeQuality; fill-rule:evenodd; clip-rule:evenodd"
viewBox="0 0 9.72 6.48"
 xmlns:xlink="http://www.w3.org/1999/xlink"
 xmlns:xodm="http://www.corel.com/coreldraw/odm/2003">
 <defs>
  <style type="text/css">
   <![CDATA[
    .fil0 {fill:#DDBEBE;fill-rule:nonzero}
   ]]>
  </style>
 </defs>
 <g id="Camada_x0020_1">
  <metadata id="CorelCorpID_0Corel-Layer"/>
  <path class="fil0" d="M9.23 0l-8.73 0c-0.27,0 -0.5,0.22 -0.5,0.5l0 5.49c0,0.27 0.22,0.5 0.5,0.5l8.73 0c0.27,0 0.5,-0.22 0.5,-0.5l0 -5.49c0,-0.27 -0.22,-0.5 -0.5,-0.5zm-0.19 0.37l-3.89 2.92c-0.07,0.05 -0.18,0.09 -0.29,0.09 -0.11,0 -0.22,-0.03 -0.29,-0.09l-3.89 -2.92 8.35 0zm-2.08 3.11l2.12 2.62c0,0 0,0 0.01,0.01l-8.45 0c0,-0 0.01,-0 0.01,-0.01l2.12 -2.62c0.07,-0.08 0.05,-0.2 -0.03,-0.26 -0.08,-0.07 -0.2,-0.05 -0.26,0.03l-2.1 2.59 0 -5.23 3.98 2.98c0.15,0.11 0.33,0.16 0.51,0.16 0.18,-0 0.36,-0.05 0.51,-0.16l3.98 -2.98 0 5.23 -2.1 -2.59c-0.06,-0.08 -0.18,-0.09 -0.26,-0.03 -0.08,0.06 -0.09,0.18 -0.03,0.26z"/>
 </g>
</svg>
