<?xml version="1.0" encoding="UTF-8"?>
<!DOCTYPE svg PUBLIC "-//W3C//DTD SVG 1.1//EN" "http://www.w3.org/Graphics/SVG/1.1/DTD/svg11.dtd">
<!-- Creator: CorelDRAW 2019 (64 Bit) -->
<svg xmlns="http://www.w3.org/2000/svg" xml:space="preserve" width="3.109mm" height="3.1089mm" version="1.1" style="shape-rendering:geometricPrecision; text-rendering:geometricPrecision; image-rendering:optimizeQuality; fill-rule:evenodd; clip-rule:evenodd"
viewBox="0 0 9.72 9.72"
 xmlns:xlink="http://www.w3.org/1999/xlink"
 xmlns:xodm="http://www.corel.com/coreldraw/odm/2003">
 <defs>
  <style type="text/css">
   <![CDATA[
    .fil0 {fill:#DDBEBE;fill-rule:nonzero}
   ]]>
  </style>
 </defs>
 <g id="Camada_x0020_1">
  <metadata id="CorelCorpID_0Corel-Layer"/>
  <g id="_2289839612000">
   <path class="fil0" d="M6.99 9.72c-0.31,0 -0.62,-0.06 -0.93,-0.17 -1.34,-0.49 -2.59,-1.28 -3.6,-2.29 -1.01,-1.01 -1.81,-2.26 -2.29,-3.6 -0.16,-0.43 -0.2,-0.88 -0.14,-1.32 0.06,-0.42 0.22,-0.82 0.47,-1.17 0.25,-0.35 0.57,-0.64 0.95,-0.85 0.4,-0.21 0.84,-0.32 1.3,-0.32 0.14,0 0.27,0.1 0.3,0.24l0.48 2.23c0.02,0.1 -0.01,0.21 -0.08,0.28l-0.81 0.81c0.77,1.53 2.02,2.78 3.54,3.55l0.82 -0.82c0.07,-0.07 0.18,-0.1 0.28,-0.08l2.23 0.48c0.14,0.03 0.24,0.15 0.24,0.3 0,0.46 -0.11,0.9 -0.32,1.3 -0.2,0.37 -0.49,0.7 -0.85,0.95 -0.35,0.24 -0.76,0.41 -1.17,0.47 -0.13,0.02 -0.26,0.03 -0.39,0.03l0 0zm-4.49 -9.1c-0.61,0.07 -1.15,0.39 -1.51,0.9 -0.4,0.57 -0.5,1.28 -0.26,1.94 0.94,2.58 2.95,4.59 5.53,5.53 0.66,0.24 1.37,0.15 1.94,-0.26 0.51,-0.36 0.83,-0.9 0.9,-1.51l-1.81 -0.39 -0.85 0.85c-0.09,0.09 -0.23,0.11 -0.34,0.06 -1.81,-0.85 -3.27,-2.31 -4.12,-4.12 -0.05,-0.12 -0.03,-0.25 0.06,-0.34l0.85 -0.85 -0.39 -1.81z"/>
   <path class="fil0" d="M9.42 5.17c-0.17,0 -0.3,-0.14 -0.3,-0.3 0,-2.35 -1.91,-4.25 -4.25,-4.25 -0.17,0 -0.3,-0.14 -0.3,-0.3 0,-0.17 0.14,-0.3 0.3,-0.3 1.3,0 2.52,0.51 3.44,1.42 0.92,0.92 1.42,2.14 1.42,3.44 0,0.17 -0.14,0.3 -0.3,0.3l0 0z"/>
   <path class="fil0" d="M8.21 5.17c-0.17,0 -0.3,-0.14 -0.3,-0.3 0,-1.68 -1.36,-3.04 -3.04,-3.04 -0.17,0 -0.3,-0.14 -0.3,-0.3 0,-0.17 0.14,-0.3 0.3,-0.3 2.01,0 3.65,1.64 3.65,3.65 0,0.17 -0.14,0.3 -0.3,0.3l0 0z"/>
   <path class="fil0" d="M6.99 5.17c-0.17,0 -0.3,-0.14 -0.3,-0.3 0,-1.01 -0.82,-1.82 -1.82,-1.82 -0.17,0 -0.3,-0.14 -0.3,-0.3 0,-0.17 0.14,-0.3 0.3,-0.3 1.34,0 2.43,1.09 2.43,2.43 0,0.17 -0.14,0.3 -0.3,0.3l0 0z"/>
  </g>
 </g>
</svg>
