<?xml version="1.0" encoding="UTF-8"?>
<!DOCTYPE svg PUBLIC "-//W3C//DTD SVG 1.1//EN" "http://www.w3.org/Graphics/SVG/1.1/DTD/svg11.dtd">
<!-- Creator: CorelDRAW 2019 (64 Bit) -->
<svg xmlns="http://www.w3.org/2000/svg" xml:space="preserve" width="3.1454mm" height="3.109mm" version="1.1" style="shape-rendering:geometricPrecision; text-rendering:geometricPrecision; image-rendering:optimizeQuality; fill-rule:evenodd; clip-rule:evenodd"
viewBox="0 0 9.95 9.84"
 xmlns:xlink="http://www.w3.org/1999/xlink"
 xmlns:xodm="http://www.corel.com/coreldraw/odm/2003">
 <defs>
  <style type="text/css">
   <![CDATA[
    .fil0 {fill:#DDBEBE}
   ]]>
  </style>
 </defs>
 <g id="Camada_x0020_1">
  <metadata id="CorelCorpID_0Corel-Layer"/>
  <g id="_2289714464928">
   <path class="fil0" d="M0.54 5.46c0.24,-0 1.52,-0.03 1.65,0.02 0.11,1.37 0.63,2.46 1.44,3.47 0.06,0.07 0.11,0.12 0.16,0.19 -0.32,-0.02 -0.98,-0.37 -1.21,-0.5 -1.06,-0.64 -1.89,-1.82 -2.04,-3.17zm2.16 0l1.98 0 -0 3.8c-0.16,-0.07 -0.58,-0.55 -0.72,-0.71 -0.19,-0.23 -0.41,-0.56 -0.58,-0.87 -0.32,-0.59 -0.63,-1.45 -0.68,-2.22zm-0.02 -0.51c-0.05,-0.95 0.25,-1.89 0.6,-2.6 0.17,-0.35 0.4,-0.71 0.61,-0.97 0.1,-0.13 0.62,-0.76 0.79,-0.8l-0 0.4c0,0.89 0.02,3.14 -0,3.97 -0.59,0.02 -1.38,0.01 -2,0zm-2.17 -0c-0.06,-1.49 0.82,-2.96 1.98,-3.69 0.29,-0.18 0.89,-0.51 1.3,-0.57 -0.04,0.08 -0.25,0.31 -0.33,0.41 -0.11,0.14 -0.21,0.29 -0.3,0.43 -0.69,1.07 -0.94,2.07 -1,3.42l-1.65 -0.01zm4.68 -4.4c0.24,0.12 0.78,0.77 0.96,1.03 0.14,0.19 0.26,0.39 0.37,0.6 0.07,0.13 0.28,0.59 0.33,0.65 0.18,0.17 0.54,0.01 0.36,-0.39 -0.25,-0.56 -0.72,-1.36 -1.14,-1.77 0.19,-0.01 0.83,0.29 0.99,0.38 0.85,0.48 1.58,1.21 1.97,2.2 0.06,0.15 0.18,0.37 0.41,0.24 0.19,-0.11 0.1,-0.33 0.03,-0.5 -0.14,-0.31 -0.31,-0.62 -0.5,-0.89 -1.25,-1.81 -3.73,-2.61 -5.88,-1.74 -1.22,0.49 -2.3,1.52 -2.76,2.73 -0.58,1.55 -0.42,3.16 0.4,4.45 1.71,2.66 5.31,3.04 7.51,1.02 0.26,-0.24 0.68,-0.57 0.41,-0.81 -0.2,-0.18 -0.36,0.03 -0.45,0.12 -0.37,0.39 -0.63,0.62 -1.16,0.92 -0.19,0.11 -0.76,0.37 -0.99,0.38 0,-0.01 0.92,-1.11 0.98,-1.44 0.04,-0.23 -0.25,-0.41 -0.43,-0.23 -0.07,0.07 -0.23,0.39 -0.3,0.5 -0.1,0.16 -0.23,0.34 -0.33,0.47 -0.14,0.17 -0.63,0.73 -0.79,0.81l-0 -3.81c0.29,0 0.81,0.1 0.82,-0.25 0,-0.36 -0.53,-0.25 -0.82,-0.25l0 -4.4z"/>
   <path class="fil0" d="M8.48 6.73c-0.14,-0.08 -0.49,-0.83 -0.63,-1.03 -0.3,-0.42 -0.72,0.46 -0.93,0.53l-0.01 -2.29c0.02,-0.23 0.28,-0.32 0.48,-0.2 0.24,0.14 1.85,1.06 1.92,1.14 -0.16,0.08 -0.58,0.1 -0.78,0.18 -0.32,0.11 -0.11,0.42 0.01,0.62 0.12,0.2 0.25,0.43 0.36,0.62 0.1,0.18 0.08,0.19 -0.07,0.27 -0.1,0.05 -0.24,0.15 -0.34,0.17zm0.54 -1.25c0.06,-0.04 0.24,-0.07 0.31,-0.08 0.1,-0.02 0.22,-0.04 0.31,-0.07 0.34,-0.13 0.48,-0.57 -0.05,-0.89l-1.93 -1.13c-0.19,-0.11 -0.33,-0.18 -0.59,-0.12 -0.41,0.09 -0.68,0.38 -0.68,0.87 0,0.51 0.01,1.01 0.01,1.52 0,0.48 -0.08,1.07 0.28,1.26 0.42,0.23 0.74,-0.42 0.91,-0.53l0.08 0.11c0.35,0.61 0.52,1.12 1.31,0.66 0.26,-0.15 0.58,-0.32 0.48,-0.77 -0.05,-0.24 -0.34,-0.58 -0.43,-0.81z"/>
  </g>
 </g>
</svg>
